<?xml version="1.0" encoding="UTF-8"?>
<!DOCTYPE svg PUBLIC "-//W3C//DTD SVG 1.1//EN" "http://www.w3.org/Graphics/SVG/1.1/DTD/svg11.dtd">
<!-- Creator: CorelDRAW X7 -->
<svg xmlns="http://www.w3.org/2000/svg" xml:space="preserve" width="4700px" height="2160px" version="1.1" style="shape-rendering:geometricPrecision; text-rendering:geometricPrecision; image-rendering:optimizeQuality; fill-rule:evenodd; clip-rule:evenodd"
viewBox="0 0 4700 2160"
 xmlns:xlink="http://www.w3.org/1999/xlink">
 <defs>
  <style type="text/css">
   <![CDATA[
    .fil1 {fill:#D1DC05}
    .fil0 {fill:#18B3AB}
    .fil2 {fill:#222222}
   ]]>
  </style>
 </defs>
 <g id="Layer_x0020_1">
  <metadata id="CorelCorpID_0Corel-Layer"/>
  <g id="_2319910184800">
   <path class="fil0" d="M1397 1824l0 7c0,181 -148,329 -329,329l0 0c-180,0 -328,-148 -328,-329l0 -664 657 657zm-329 -1824l0 0c181,0 329,148 329,329l0 7 -657 657 0 -664c0,-181 148,-329 328,-329zm-1068 1080l0 0c0,-181 148,-329 329,-329l343 0 0 658 -343 0c-181,0 -329,-148 -329,-329z"/>
   <path class="fil1" d="M1397 431l0 615 -615 0 615 -615zm67 -67c123,-112 315,-109 434,10l0 0c122,121 122,321 0,443l-230 229 -204 0 0 -682zm204 750l230 230c122,121 122,321 0,443l0 0c-119,118 -311,121 -434,9l0 -682 204 0zm-271 0l0 615 -615 -615 615 0z"/>
   <g>
    <path class="fil2" d="M2397 387l0 86 91 -102c5,-5 8,-9 11,-11 4,-2 8,-3 13,-3 6,0 12,2 16,6 4,4 6,9 6,15 0,8 -3,15 -10,22l-57 57 65 100c5,7 8,13 11,18 2,6 3,11 3,16 0,5 -2,10 -6,14 -4,4 -9,6 -16,6 -7,0 -12,-2 -16,-5 -4,-3 -8,-7 -10,-11 -3,-5 -6,-10 -8,-14l-55 -90 -38 39 0 50c0,11 -2,18 -7,23 -4,5 -10,8 -17,8 -4,0 -8,-1 -11,-4 -4,-2 -7,-5 -9,-9 -1,-3 -2,-6 -2,-10 -1,-5 -1,-11 -1,-18l0 -183c0,-10 2,-18 6,-23 5,-5 10,-7 17,-7 7,0 13,2 17,7 5,5 7,13 7,23zm342 12l-105 0 0 61 97 0c7,0 13,1 16,5 4,3 5,8 5,13 0,6 -1,10 -5,14 -3,3 -9,5 -16,5l-97 0 0 70 109 0c7,0 13,2 17,6 3,3 5,8 5,14 0,6 -2,11 -5,14 -4,4 -10,6 -17,6l-127 0c-10,0 -17,-3 -22,-8 -4,-4 -6,-12 -6,-23l0 -185c0,-7 1,-13 3,-17 2,-5 5,-8 9,-10 4,-2 10,-3 16,-3l123 0c8,0 13,1 17,5 4,4 5,8 5,14 0,6 -1,10 -5,14 -4,3 -9,5 -17,5zm141 171l-37 -157 0 170c0,9 -2,16 -6,21 -4,4 -9,7 -15,7 -7,0 -12,-3 -16,-7 -4,-5 -6,-12 -6,-21l0 -195c0,-11 3,-18 8,-22 5,-3 12,-5 21,-5l15 0c8,0 15,1 19,2 3,2 6,5 8,9 2,5 4,12 7,22l33 134 34 -134c2,-10 4,-17 6,-22 2,-4 5,-7 9,-9 4,-1 10,-2 19,-2l14 0c9,0 16,2 21,5 5,4 8,11 8,22l0 195c0,9 -2,16 -6,21 -4,4 -9,7 -16,7 -6,0 -11,-3 -15,-7 -4,-5 -6,-12 -6,-21l0 -170 -37 157c-2,10 -4,17 -6,22 -1,5 -4,9 -8,13 -4,4 -10,6 -17,6 -5,0 -10,-1 -14,-4 -3,-2 -6,-6 -8,-10 -3,-4 -4,-8 -5,-13 -2,-4 -3,-9 -4,-14zm342 -171l-105 0 0 61 96 0c7,0 13,1 16,5 4,3 5,8 5,13 0,6 -1,10 -5,14 -3,3 -9,5 -16,5l-96 0 0 70 108 0c7,0 13,2 17,6 3,3 5,8 5,14 0,6 -2,11 -5,14 -4,4 -10,6 -17,6l-127 0c-10,0 -17,-3 -21,-8 -5,-4 -7,-12 -7,-23l0 -185c0,-7 1,-13 3,-17 2,-5 5,-8 9,-10 4,-2 10,-3 16,-3l124 0c7,0 13,1 16,5 4,4 6,8 6,14 0,6 -2,10 -6,14 -3,3 -9,5 -16,5zm123 -13l90 145 0 -146c0,-9 2,-16 5,-21 4,-5 9,-7 16,-7 7,0 12,2 16,7 4,4 6,12 6,21l0 193c0,22 -9,33 -26,33 -4,0 -7,-1 -11,-2 -3,-1 -6,-3 -9,-6 -3,-3 -6,-6 -8,-10 -3,-4 -5,-8 -8,-12l-87 -143 0 144c0,10 -2,17 -6,22 -5,4 -10,7 -16,7 -7,0 -12,-3 -16,-7 -4,-5 -6,-12 -6,-22l0 -189c0,-8 1,-15 2,-19 2,-5 6,-9 10,-13 5,-3 10,-4 15,-4 5,0 8,0 11,2 3,1 6,3 8,6 2,2 4,5 7,9 2,4 5,8 7,12zm333 16l-51 0 0 178c0,11 -2,18 -6,23 -5,5 -10,8 -17,8 -7,0 -12,-3 -17,-8 -4,-5 -6,-12 -6,-23l0 -178 -51 0c-8,0 -14,-2 -18,-6 -4,-3 -6,-8 -6,-15 0,-6 2,-11 6,-15 4,-3 10,-5 18,-5l148 0c8,0 14,2 18,5 4,4 6,9 6,15 0,7 -2,12 -6,15 -4,4 -10,6 -18,6zm203 -3l-105 0 0 61 97 0c7,0 12,1 16,5 3,3 5,8 5,13 0,6 -2,10 -5,14 -4,3 -9,5 -16,5l-97 0 0 70 109 0c7,0 13,2 16,6 4,3 6,8 6,14 0,6 -2,11 -6,14 -3,4 -9,6 -16,6l-127 0c-10,0 -17,-3 -22,-8 -4,-4 -7,-12 -7,-23l0 -185c0,-7 1,-13 3,-17 2,-5 6,-8 10,-10 4,-2 9,-3 16,-3l123 0c8,0 13,1 17,5 3,4 5,8 5,14 0,6 -2,10 -5,14 -4,3 -9,5 -17,5zm125 103l-16 0 0 78c0,11 -2,19 -6,23 -5,5 -10,8 -17,8 -7,0 -13,-3 -17,-8 -4,-5 -6,-13 -6,-23l0 -189c0,-10 2,-18 6,-23 5,-5 12,-7 22,-7l76 0c10,0 19,0 27,1 7,1 14,3 20,6 7,3 13,8 19,14 6,6 10,13 13,21 2,8 4,16 4,25 0,19 -5,33 -15,44 -9,11 -24,19 -44,24 9,4 17,11 24,20 8,10 14,19 20,30 6,10 11,19 14,28 3,8 5,14 5,17 0,3 -1,6 -3,10 -2,3 -4,5 -8,7 -3,2 -7,3 -11,3 -6,0 -10,-2 -14,-4 -3,-3 -6,-6 -9,-10 -2,-4 -6,-10 -10,-18l-19 -33c-7,-12 -13,-21 -18,-28 -5,-6 -11,-11 -16,-13 -5,-2 -12,-3 -21,-3zm27 -104l-43 0 0 68 42 0c11,0 21,-1 28,-3 8,-2 14,-6 18,-11 4,-5 6,-12 6,-20 0,-7 -2,-13 -5,-18 -3,-6 -8,-10 -14,-12 -5,-3 -16,-4 -32,-4zm144 182l0 -193c0,-10 2,-18 6,-23 5,-5 10,-7 17,-7 7,0 13,2 17,7 4,5 7,13 7,23l0 193c0,11 -3,18 -7,23 -4,5 -10,8 -17,8 -7,0 -12,-3 -17,-8 -4,-5 -6,-12 -6,-23zm246 -1l-11 -31 -94 0 -11 31c-4,13 -8,21 -11,25 -3,5 -8,7 -14,7 -6,0 -12,-2 -16,-7 -4,-5 -7,-10 -7,-16 0,-3 1,-7 2,-10 1,-4 3,-9 5,-15l59 -160c2,-4 4,-10 6,-16 2,-7 5,-12 7,-16 3,-4 7,-8 11,-10 4,-3 10,-4 16,-4 7,0 12,1 16,4 5,2 8,6 11,10 2,4 5,8 7,13 1,5 4,11 7,19l60 159c4,12 7,21 7,26 0,6 -3,11 -7,16 -4,4 -10,7 -16,7 -4,0 -7,-1 -10,-2 -2,-2 -4,-4 -6,-6 -2,-2 -4,-6 -6,-11 -2,-5 -4,-9 -5,-13zm-92 -68l68 0 -34 -102 -34 102zm237 -125l89 145 0 -146c0,-9 2,-16 6,-21 4,-5 9,-7 15,-7 7,0 12,2 16,7 4,4 6,12 6,21l0 193c0,22 -8,33 -25,33 -4,0 -8,-1 -11,-2 -4,-1 -7,-3 -10,-6 -3,-3 -5,-6 -8,-10 -2,-4 -5,-8 -7,-12l-88 -143 0 144c0,10 -2,17 -6,22 -4,4 -9,7 -16,7 -6,0 -12,-3 -16,-7 -4,-5 -6,-12 -6,-22l0 -189c0,-8 1,-15 3,-19 2,-5 5,-9 10,-13 4,-3 9,-4 15,-4 4,0 8,0 11,2 3,1 5,3 7,6 3,2 5,5 7,9 3,4 5,8 8,12zm-2171 398l0 87 91 -102c5,-5 8,-9 11,-11 4,-3 8,-4 13,-4 6,0 12,2 16,6 4,5 6,10 6,16 0,7 -3,14 -10,21l-57 58 65 100c5,7 8,13 11,18 2,5 3,10 3,15 0,6 -2,10 -6,14 -4,4 -9,6 -16,6 -7,0 -12,-1 -16,-4 -4,-3 -8,-7 -10,-12 -3,-5 -6,-9 -8,-13l-55 -91 -38 39 0 51c0,10 -2,18 -7,23 -4,5 -10,7 -17,7 -4,0 -8,-1 -11,-3 -4,-2 -7,-5 -9,-9 -1,-3 -2,-7 -2,-11 -1,-4 -1,-10 -1,-18l0 -183c0,-10 2,-17 6,-22 5,-5 10,-8 17,-8 7,0 13,3 17,8 5,5 7,12 7,22zm342 13l-105 0 0 60 97 0c7,0 13,2 16,5 4,4 5,8 5,14 0,5 -1,10 -5,13 -3,4 -9,6 -16,6l-97 0 0 70 109 0c7,0 13,2 17,5 3,4 5,9 5,15 0,5 -2,10 -5,14 -4,3 -10,5 -17,5l-127 0c-10,0 -17,-2 -22,-7 -4,-5 -6,-13 -6,-23l0 -185c0,-7 1,-13 3,-18 2,-4 5,-8 9,-10 4,-2 10,-3 16,-3l123 0c8,0 13,2 17,6 4,3 5,8 5,13 0,6 -1,11 -5,15 -4,3 -9,5 -17,5zm238 134c0,14 -4,28 -11,40 -7,11 -17,21 -31,27 -14,7 -30,10 -49,10 -23,0 -42,-4 -57,-13 -10,-7 -18,-16 -25,-27 -6,-11 -10,-21 -10,-32 0,-6 2,-11 6,-15 4,-5 9,-7 15,-7 5,0 9,2 13,5 3,4 6,9 8,15 3,8 6,15 10,20 3,5 8,9 14,13 6,3 14,5 24,5 14,0 25,-3 34,-10 9,-7 13,-16 13,-26 0,-8 -2,-15 -7,-20 -5,-5 -11,-9 -18,-12 -7,-2 -17,-5 -30,-8 -16,-4 -30,-9 -41,-15 -11,-5 -20,-13 -27,-22 -6,-10 -9,-22 -9,-36 0,-14 3,-26 10,-36 7,-11 17,-19 30,-24 13,-6 28,-9 46,-9 14,0 26,2 37,6 10,4 19,9 25,15 7,6 12,12 15,19 3,7 5,14 5,20 0,6 -2,12 -6,16 -4,5 -9,7 -15,7 -5,0 -9,-1 -12,-4 -3,-3 -6,-7 -9,-14 -4,-9 -9,-16 -15,-22 -6,-5 -15,-7 -28,-7 -12,0 -22,2 -29,8 -8,6 -11,12 -11,20 0,5 1,10 3,13 3,4 6,7 11,9 4,3 9,5 13,6 5,2 12,4 22,7 13,3 25,7 36,11 10,3 19,8 27,14 7,5 13,13 17,21 4,9 6,19 6,32zm191 -134l-105 0 0 60 97 0c7,0 12,2 16,5 3,4 5,8 5,14 0,5 -2,10 -5,13 -4,4 -9,6 -16,6l-97 0 0 70 109 0c7,0 13,2 16,5 4,4 6,9 6,15 0,5 -2,10 -6,14 -3,3 -9,5 -16,5l-127 0c-10,0 -17,-2 -22,-7 -4,-5 -6,-13 -6,-23l0 -185c0,-7 1,-13 3,-18 2,-4 5,-8 9,-10 4,-2 10,-3 16,-3l123 0c8,0 13,2 17,6 3,3 5,8 5,13 0,6 -2,11 -5,15 -4,3 -9,5 -17,5zm110 -13l0 71 101 0 0 -71c0,-10 2,-17 6,-22 4,-5 10,-8 17,-8 7,0 12,3 17,8 4,5 6,12 6,22l0 194c0,10 -2,18 -6,23 -5,5 -11,7 -17,7 -7,0 -13,-2 -17,-7 -4,-5 -6,-13 -6,-23l0 -83 -101 0 0 83c0,10 -2,18 -7,23 -4,5 -10,7 -17,7 -7,0 -12,-2 -16,-7 -5,-5 -7,-13 -7,-23l0 -194c0,-10 2,-17 7,-22 4,-5 9,-8 16,-8 7,0 13,3 17,8 5,5 7,12 7,22zm344 192l-11 -30 -93 0 -11 31c-4,12 -8,21 -11,25 -3,4 -8,6 -15,6 -6,0 -11,-2 -15,-6 -5,-5 -7,-10 -7,-16 0,-3 0,-7 1,-10 1,-4 3,-9 6,-15l58 -160c2,-5 4,-10 6,-17 3,-6 5,-11 8,-16 3,-4 6,-7 10,-10 5,-3 10,-4 17,-4 6,0 12,1 16,4 4,3 8,6 10,10 3,4 5,9 7,14 2,4 4,11 7,19l60 158c5,12 7,21 7,27 0,5 -2,11 -6,15 -5,5 -10,7 -17,7 -3,0 -6,0 -9,-2 -3,-1 -5,-3 -7,-5 -1,-3 -3,-7 -5,-11 -2,-5 -4,-10 -6,-14zm-92 -68l69 0 -35 -101 -34 101zm298 -108l-51 0 0 178c0,10 -2,18 -7,23 -4,5 -10,7 -16,7 -7,0 -13,-2 -17,-7 -5,-5 -7,-13 -7,-23l0 -178 -51 0c-8,0 -14,-2 -17,-6 -4,-4 -6,-9 -6,-15 0,-6 2,-11 6,-15 4,-4 10,-6 17,-6l149 0c8,0 14,2 18,6 4,4 6,9 6,15 0,6 -2,11 -6,15 -4,4 -10,6 -18,6zm178 176l-11 -30 -93 0 -11 31c-5,12 -8,21 -11,25 -3,4 -8,6 -15,6 -6,0 -11,-2 -16,-6 -4,-5 -7,-10 -7,-16 0,-3 1,-7 2,-10 1,-4 3,-9 5,-15l59 -160c2,-5 4,-10 6,-17 2,-6 5,-11 8,-16 2,-4 6,-7 10,-10 4,-3 10,-4 16,-4 7,0 12,1 16,4 5,3 8,6 11,10 3,4 5,9 7,14 2,4 4,11 7,19l60 158c4,12 7,21 7,27 0,5 -2,11 -7,15 -4,5 -10,7 -16,7 -4,0 -7,0 -9,-2 -3,-1 -5,-3 -7,-5 -2,-3 -4,-7 -6,-11 -2,-5 -3,-10 -5,-14zm-92 -68l69 0 -35 -101 -34 101zm237 -124l89 145 0 -146c0,-10 2,-17 6,-22 4,-4 9,-7 16,-7 6,0 11,3 15,7 4,5 6,12 6,22l0 193c0,22 -8,32 -25,32 -4,0 -8,0 -11,-2 -4,-1 -7,-3 -10,-6 -3,-2 -5,-6 -8,-9 -2,-4 -5,-8 -7,-12l-88 -143 0 144c0,9 -2,16 -6,21 -4,5 -9,7 -16,7 -6,0 -11,-2 -15,-7 -4,-5 -6,-12 -6,-21l0 -190c0,-8 0,-14 2,-19 2,-5 5,-9 10,-12 5,-3 10,-5 15,-5 4,0 8,1 11,2 3,2 5,4 8,6 2,3 4,6 6,10 3,4 5,8 8,12zm-1739 513l-16 0 0 79c0,10 -2,18 -6,23 -5,5 -10,7 -17,7 -8,0 -13,-3 -17,-8 -4,-5 -6,-12 -6,-22l0 -190c0,-10 2,-18 6,-23 5,-5 12,-7 22,-7l76 0c10,0 19,0 27,1 7,1 14,3 20,6 7,3 13,8 19,14 6,6 10,13 13,21 2,8 4,17 4,26 0,18 -5,33 -15,44 -9,10 -24,18 -44,23 9,5 17,11 24,21 8,9 14,19 20,29 6,10 11,20 14,28 3,8 5,14 5,17 0,3 -1,6 -3,10 -2,3 -4,5 -8,7 -3,2 -7,3 -11,3 -6,0 -10,-1 -14,-4 -3,-3 -6,-6 -9,-10 -2,-4 -6,-10 -10,-18l-19 -33c-7,-12 -13,-21 -18,-28 -5,-6 -11,-10 -16,-13 -5,-2 -12,-3 -21,-3zm27 -104l-43 0 0 68 42 0c11,0 20,-1 28,-3 8,-2 14,-6 18,-11 4,-5 6,-12 6,-20 0,-7 -2,-13 -5,-18 -3,-6 -8,-9 -14,-12 -5,-2 -16,-4 -32,-4zm294 1l-105 0 0 61 96 0c7,0 13,2 16,5 4,3 5,8 5,13 0,6 -1,11 -5,14 -3,3 -8,5 -16,5l-96 0 0 70 108 0c8,0 13,2 17,6 4,3 5,8 5,14 0,6 -1,11 -5,14 -4,4 -9,6 -17,6l-126 0c-11,0 -18,-3 -22,-7 -5,-5 -7,-13 -7,-24l0 -185c0,-7 1,-13 3,-17 2,-5 5,-8 9,-10 5,-2 10,-3 17,-3l123 0c7,0 13,2 16,5 4,4 6,8 6,14 0,6 -2,11 -6,14 -3,4 -9,5 -16,5zm152 112l-43 0 0 70c0,10 -2,17 -7,22 -4,5 -10,8 -16,8 -7,0 -13,-3 -17,-8 -4,-5 -7,-12 -7,-22l0 -190c0,-11 3,-18 7,-23 5,-5 13,-7 23,-7l60 0c17,0 31,1 41,4 9,3 17,8 24,14 7,7 12,15 16,24 3,9 5,20 5,32 0,25 -7,44 -22,57 -14,13 -36,19 -64,19zm-12 -113l-31 0 0 76 31 0c11,0 21,-2 28,-4 7,-3 13,-7 17,-12 4,-6 6,-13 6,-22 0,-11 -3,-20 -9,-27 -7,-7 -21,-11 -42,-11zm137 107l0 -118c0,-10 2,-18 7,-23 4,-5 9,-7 16,-7 7,0 13,2 17,7 5,5 7,13 7,23l0 121c0,14 1,25 4,34 3,10 8,17 15,22 8,5 18,7 31,7 18,0 31,-5 39,-15 7,-10 11,-26 11,-47l0 -122c0,-10 2,-18 6,-23 4,-5 10,-7 17,-7 7,0 13,2 17,7 4,5 7,13 7,23l0 118c0,19 -2,35 -6,48 -3,13 -10,24 -19,34 -9,8 -19,14 -30,18 -11,4 -24,6 -39,6 -17,0 -32,-2 -45,-6 -13,-4 -23,-11 -31,-19 -9,-9 -14,-20 -18,-33 -4,-13 -6,-29 -6,-48z"/>
    <path class="fil2" d="M3352 1402l-70 0c-10,0 -17,-3 -22,-7 -4,-5 -6,-13 -6,-24l0 -185c0,-10 2,-18 6,-23 5,-5 12,-7 22,-7l75 0c11,0 20,1 28,2 8,2 15,4 22,8 5,4 10,8 14,14 4,5 8,11 10,17 2,7 3,13 3,21 0,24 -11,42 -34,54 30,10 45,30 45,60 0,13 -3,26 -10,37 -7,11 -15,19 -27,24 -7,3 -15,6 -24,7 -9,1 -20,2 -32,2zm-3 -109l-49 0 0 71 50 0c32,0 48,-12 48,-36 0,-12 -4,-21 -13,-27 -8,-6 -20,-8 -36,-8zm-49 -100l0 64 43 0c12,0 21,-1 27,-4 6,-2 11,-6 15,-13 2,-5 3,-10 3,-16 0,-12 -4,-20 -12,-25 -8,-4 -21,-6 -38,-6l-38 0zm231 -11l0 179 94 0c8,0 14,2 18,6 4,4 6,9 6,15 0,6 -2,11 -6,14 -4,4 -10,6 -18,6l-112 0c-10,0 -18,-3 -22,-7 -4,-5 -7,-13 -7,-24l0 -189c0,-10 2,-18 7,-23 4,-5 9,-7 16,-7 7,0 13,2 17,7 5,5 7,13 7,23zm150 194l0 -194c0,-10 2,-18 7,-23 4,-5 10,-7 16,-7 7,0 13,2 17,7 5,5 7,13 7,23l0 194c0,10 -2,17 -7,22 -4,5 -10,8 -17,8 -6,0 -12,-3 -16,-8 -4,-5 -7,-12 -7,-22zm146 -194l0 86 91 -102c5,-5 9,-8 12,-11 3,-2 7,-3 12,-3 7,0 12,2 16,6 4,4 6,9 6,15 0,8 -3,15 -10,22l-57 57 66 100c4,7 8,13 10,19 2,5 3,10 3,15 0,5 -2,10 -6,14 -4,4 -9,6 -16,6 -7,0 -12,-2 -16,-4 -4,-3 -7,-7 -10,-12 -3,-5 -6,-10 -8,-14l-55 -90 -38 39 0 51c0,10 -2,18 -7,23 -4,5 -10,7 -17,7 -4,0 -7,-1 -11,-3 -4,-3 -7,-6 -9,-9 -1,-4 -2,-7 -2,-11 -1,-4 -1,-10 -1,-18l0 -183c0,-10 2,-18 7,-23 4,-5 9,-7 16,-7 7,0 13,2 17,7 5,5 7,13 7,23zm-1475 591l0 -193c0,-11 2,-18 6,-23 4,-5 10,-8 17,-8 7,0 13,3 17,8 4,5 6,12 6,23l0 193c0,10 -2,18 -6,23 -4,5 -10,8 -17,8 -7,0 -12,-3 -17,-8 -4,-5 -6,-13 -6,-23zm159 -194l90 145 0 -146c0,-10 2,-17 6,-22 3,-4 9,-7 15,-7 7,0 12,3 16,7 4,5 6,12 6,22l0 193c0,22 -9,33 -25,33 -5,0 -8,-1 -12,-2 -3,-2 -6,-4 -9,-6 -3,-3 -6,-7 -8,-10 -3,-4 -5,-8 -8,-12l-87 -143 0 144c0,9 -2,17 -6,21 -4,5 -10,8 -16,8 -7,0 -12,-3 -16,-8 -4,-5 -6,-12 -6,-21l0 -190c0,-8 1,-14 3,-19 2,-5 5,-9 10,-12 4,-3 9,-5 14,-5 5,0 8,1 11,3 3,1 6,3 8,5 2,3 5,6 7,10 2,4 5,8 7,12zm213 -26l60 0c16,0 30,2 41,5 11,3 22,9 31,18 24,22 36,55 36,100 0,15 -1,28 -4,40 -2,12 -6,23 -11,33 -5,10 -11,19 -19,26 -6,6 -13,11 -21,15 -7,3 -15,6 -23,7 -9,2 -18,2 -29,2l-60 0c-9,0 -15,-1 -20,-4 -4,-2 -7,-6 -8,-11 -1,-5 -2,-12 -2,-20l0 -180c0,-11 2,-19 7,-23 4,-5 12,-8 22,-8zm18 40l0 167 35 0c8,0 14,0 18,-1 5,0 9,-1 14,-3 5,-2 9,-4 12,-8 16,-14 23,-38 23,-72 0,-25 -3,-43 -10,-55 -7,-12 -15,-20 -25,-23 -10,-3 -22,-5 -37,-5l-30 0zm292 -44c24,0 44,5 61,16 17,10 30,25 39,44 9,19 13,41 13,67 0,19 -2,36 -7,52 -5,15 -12,29 -22,40 -9,12 -21,20 -35,27 -14,6 -30,9 -48,9 -18,0 -34,-4 -48,-10 -15,-6 -27,-15 -36,-26 -10,-11 -17,-25 -22,-41 -5,-16 -7,-33 -7,-51 0,-19 3,-36 8,-52 5,-16 12,-29 22,-40 9,-12 21,-20 35,-26 14,-6 29,-9 47,-9zm66 127c0,-18 -3,-34 -8,-47 -6,-13 -13,-23 -23,-30 -10,-7 -22,-10 -35,-10 -9,0 -18,2 -26,5 -8,4 -15,10 -20,17 -6,7 -10,16 -14,27 -3,11 -5,24 -5,38 0,14 2,26 5,38 4,11 8,20 14,28 6,7 13,13 21,16 8,4 16,6 26,6 11,0 22,-3 32,-10 10,-6 18,-16 24,-29 6,-13 9,-30 9,-49zm148 -97l90 145 0 -146c0,-10 2,-17 5,-22 4,-4 9,-7 16,-7 6,0 12,3 16,7 3,5 5,12 5,22l0 193c0,22 -8,33 -25,33 -4,0 -8,-1 -11,-2 -3,-2 -6,-4 -9,-6 -3,-3 -6,-7 -9,-10 -2,-4 -5,-8 -7,-12l-87 -143 0 144c0,9 -2,17 -7,21 -4,5 -9,8 -15,8 -7,0 -12,-3 -16,-8 -4,-5 -6,-12 -6,-21l0 -190c0,-8 1,-14 2,-19 2,-5 6,-9 10,-12 5,-3 10,-5 15,-5 4,0 8,1 11,3 3,1 6,3 8,5 2,3 4,6 7,10 2,4 5,8 7,12zm335 13l-105 0 0 60 97 0c7,0 12,2 16,5 3,4 5,8 5,14 0,6 -2,10 -5,14 -4,3 -9,5 -16,5l-97 0 0 70 109 0c7,0 12,2 16,5 4,4 6,9 6,15 0,6 -2,10 -6,14 -4,4 -9,5 -16,5l-127 0c-10,0 -17,-2 -22,-7 -4,-5 -7,-12 -7,-23l0 -185c0,-7 1,-13 3,-18 2,-4 6,-7 10,-9 4,-3 9,-4 16,-4l123 0c7,0 13,2 17,6 3,3 5,8 5,14 0,5 -2,10 -5,14 -4,3 -10,5 -17,5zm238 134c0,15 -4,28 -11,40 -7,12 -18,21 -32,28 -13,6 -30,10 -49,10 -22,0 -41,-5 -56,-14 -10,-7 -19,-16 -25,-27 -7,-11 -10,-21 -10,-32 0,-6 2,-11 6,-15 4,-4 9,-7 15,-7 5,0 9,2 12,5 4,4 7,9 9,15 3,8 6,15 9,20 4,5 9,10 15,13 6,3 14,5 24,5 14,0 25,-3 34,-10 8,-7 13,-16 13,-26 0,-8 -3,-15 -7,-20 -5,-5 -11,-9 -18,-11 -8,-3 -18,-6 -30,-9 -16,-4 -30,-9 -41,-15 -12,-5 -20,-13 -27,-22 -6,-10 -10,-22 -10,-36 0,-13 4,-25 11,-36 7,-10 17,-19 30,-24 13,-6 28,-9 46,-9 14,0 26,2 36,6 11,4 19,9 26,15 7,6 12,13 15,19 3,7 5,14 5,20 0,6 -2,12 -6,16 -4,5 -9,8 -15,8 -5,0 -9,-2 -12,-5 -3,-3 -6,-7 -9,-14 -4,-9 -9,-16 -15,-21 -6,-6 -15,-8 -28,-8 -12,0 -22,3 -30,8 -7,6 -11,13 -11,21 0,5 2,9 4,12 3,4 6,7 11,10 4,2 8,4 13,6 4,1 12,3 22,6 13,3 25,7 35,11 11,4 20,8 27,14 8,6 13,13 17,21 5,9 7,19 7,32zm41 47l0 -193c0,-11 2,-18 7,-23 4,-5 9,-8 16,-8 7,0 13,3 17,8 5,5 7,12 7,23l0 193c0,10 -2,18 -7,23 -4,5 -10,8 -17,8 -6,0 -12,-3 -16,-8 -5,-5 -7,-13 -7,-23zm246 -1l-11 -31 -93 0 -11 31c-5,12 -8,21 -11,25 -3,4 -8,7 -15,7 -6,0 -11,-3 -16,-7 -4,-5 -7,-10 -7,-16 0,-3 1,-7 2,-10 1,-4 3,-9 5,-15l59 -160c2,-4 4,-10 6,-16 2,-7 5,-12 8,-16 2,-5 6,-8 10,-11 4,-2 10,-4 16,-4 7,0 12,2 16,4 5,3 8,6 11,10 3,5 5,9 7,14 2,5 4,11 7,19l60 158c5,13 7,21 7,27 0,5 -2,11 -7,15 -4,5 -10,8 -16,8 -4,0 -7,-1 -9,-3 -3,-1 -5,-3 -7,-5 -2,-3 -4,-6 -6,-11 -2,-5 -3,-10 -5,-13zm-92 -69l69 0 -35 -101 -34 101z"/>
   </g>
  </g>
 </g>
</svg>
